# xmcd
#
# Track frame offsets:
#	150
#	22569
#	40642
#	57305
#	83995
#	107307
#	129532
#	143795
#	160720
#	184890
#	204960
#	219455
#	234070
#
# Disc length: 3360 seconds
#
# Revision: 1
# Processed by: cddbd v1.4PL0 Copyright (c) Steve Scherf et al.
# Submitted via: audiograbber 1.82.01
#
DISCID=980d1e0d
DTITLE=Mel Ford and The Fairlanes - Athens to Chicago
DYEAR=1996
DGENRE=Blues
TTITLE0=Athens To Chicago
TTITLE1=Get Your Business Straight
TTITLE2=Last Clean Shirt
TTITLE3=I Got A Break Today
TTITLE4=He Knows The Rules
TTITLE5=I Wonder Why
TTITLE6=Your My Best Poker Hand
TTITLE7=I Got To Go
TTITLE8=You Missed A Good Man
TTITLE9=Just Like A Woman
TTITLE10=Jailbait
TTITLE11=You Was Wrong
TTITLE12=Nighthawk Boogie
EXTD=Awesome Madison, Wisconsin blues guitarist!
EXTT0=
EXTT1=
EXTT2=
EXTT3=
EXTT4=
EXTT5=
EXTT6=
EXTT7=
EXTT8=
EXTT9=
EXTT10=
EXTT11=
EXTT12=
PLAYORDER=
